# xmcd
#
# Track frame offsets: 
#        150
#        3138
#        29171
#        49432
#        65706
#        87823
#        109884
#        129793
#        148073
#        164333
#        191280
#        206608
#
# Disc length: 3017 seconds
#
# Revision: 0
# Processed by: cddbd v1.5.2PL0 Copyright (c) Steve Scherf et al.
# Submitted via: ExactAudioCopy v0.95b4
#
DISCID=a70bc70c
DTITLE=Jamey Johnson - That Lonesome Song
DYEAR=2007
DGENRE=Country
TTITLE0=Released
TTITLE1=High Cost of Living
TTITLE2=Angel
TTITLE3=The Door Is Always Open
TTITLE4=Mary Ho Round
TTITLE5=In Color
TTITLE6=Leave You Alone
TTITLE7=That Lonesome Song
TTITLE8=Dreaming My Dreams
TTITLE9=Next Ex Thing
TTITLE10=Women
TTITLE11=Star In Alabama
EXTD=
EXTT0=
EXTT1=
EXTT2=
EXTT3=
EXTT4=
EXTT5=
EXTT6=
EXTT7=
EXTT8=
EXTT9=
EXTT10=
EXTT11=
PLAYORDER=
